<svg xmlns="http://www.w3.org/2000/svg" viewBox="0 0 100 100"><g data-name="Layer 14"><polygon points="59.5 16.35 53.9 10.75 47.67 16.97 55.83 20.03 59.5 16.35"/><polygon points="44.07 10.57 38.47 4.96 32.24 11.19 40.4 14.25 44.07 10.57"/><polygon points="89.25 46.1 83.65 40.5 79.97 44.17 83.03 52.33 89.25 46.1"/><polygon points="85.75 59.6 88.81 67.76 95.04 61.53 89.43 55.93 85.75 59.6"/><path d="M59.15 55.77l30 39.74 5-9.18L76.47 39.12C70.52 45 64.55 50.68 59.15 55.77zM60.88 23.53L13.67 5.84l-9.18 5 39.74 30C49.32 35.45 55 29.48 60.88 23.53z"/><path d="M94.12,5.88s-1.05-1.39-3.86-1.39C86.46,4.49,79.44,7,67.48,19,46.66,39.81,25.91,62.88,25.91,62.88L12.77,65.23,6.65,73.49,23,77l3.54,16.32,8.26-6.12,2.35-13.14S60.19,53.34,81,32.52,94.12,5.88,94.12,5.88Z"/></g></svg>